<?xml version="1.0" encoding="UTF-8" standalone="no"?>
<!DOCTYPE svg PUBLIC "-//W3C//DTD SVG 1.1//EN"
 "http://www.w3.org/Graphics/SVG/1.1/DTD/svg11.dtd">
<!-- Generated by graphviz version 6.0.1 (0)
 -->
<!-- Title: Taskflow Pages: 1 -->
<svg width="465pt" height="419pt"
 viewBox="0.00 0.00 465.00 419.00" xmlns="http://www.w3.org/2000/svg" xmlns:xlink="http://www.w3.org/1999/xlink">
<g id="graph0" class="graph" transform="scale(1 1) rotate(0) translate(4 415)">
<title>Taskflow</title>
<polygon fill="white" stroke="none" points="-4,4 -4,-415 461,-415 461,4 -4,4"/>
<g id="clust1" class="cluster">
<title>cluster_p0x55898c6699d0</title>
<polygon fill="none" stroke="black" points="8,-8 8,-403 449,-403 449,-8 8,-8"/>
<text text-anchor="middle" x="228.5" y="-387.8" font-family="Times,serif" font-size="14.00">Taskflow: draw()</text>
</g>
<!-- p0x7f98dc000e00 -->
<g id="node1" class="node">
<title>p0x7f98dc000e00</title>
<polygon fill="aquamarine" stroke="black" points="226,-372 83.56,-354 226,-336 368.44,-354 226,-372"/>
<text text-anchor="middle" x="226" y="-350.3" font-family="Times,serif" font-size="14.00">acquire swapchain image</text>
</g>
<!-- p0x7f98dc000fe0 -->
<g id="node2" class="node">
<title>p0x7f98dc000fe0</title>
<ellipse fill="none" stroke="black" cx="94" cy="-34" rx="77.99" ry="18"/>
<text text-anchor="middle" x="94" y="-30.3" font-family="Times,serif" font-size="14.00">recreate swapchain</text>
</g>
<!-- p0x7f98dc000e00&#45;&gt;p0x7f98dc000fe0 -->
<g id="edge1" class="edge">
<title>p0x7f98dc000e00&#45;&gt;p0x7f98dc000fe0</title>
<path fill="none" stroke="black" stroke-dasharray="5,2" d="M138.43,-347.06C87.79,-338.31 34,-317.39 34,-268 34,-268 34,-268 34,-120 34,-96.09 50.04,-74.19 65.53,-58.6"/>
<polygon fill="black" stroke="black" points="68.18,-60.91 73.01,-51.48 63.36,-55.84 68.18,-60.91"/>
<text text-anchor="middle" x="37.5" y="-190.3" font-family="Times,serif" font-size="14.00">0</text>
</g>
<!-- p0x7f98dc0010d0 -->
<g id="node3" class="node">
<title>p0x7f98dc0010d0</title>
<ellipse fill="none" stroke="black" cx="294" cy="-267" rx="60.39" ry="18"/>
<text text-anchor="middle" x="294" y="-263.3" font-family="Times,serif" font-size="14.00">prepare frame</text>
</g>
<!-- p0x7f98dc000e00&#45;&gt;p0x7f98dc0010d0 -->
<g id="edge2" class="edge">
<title>p0x7f98dc000e00&#45;&gt;p0x7f98dc0010d0</title>
<path fill="none" stroke="black" stroke-dasharray="5,2" d="M238.47,-337.41C248.47,-324.91 262.69,-307.13 274.24,-292.7"/>
<polygon fill="black" stroke="black" points="277.16,-294.65 280.68,-284.65 271.7,-290.28 277.16,-294.65"/>
<text text-anchor="middle" x="267.5" y="-306.8" font-family="Times,serif" font-size="14.00">1</text>
</g>
<!-- p0x7f98dc0012b0 -->
<g id="node5" class="node">
<title>p0x7f98dc0012b0</title>
<ellipse fill="none" stroke="black" cx="264" cy="-194" rx="55.49" ry="18"/>
<text text-anchor="middle" x="264" y="-190.3" font-family="Times,serif" font-size="14.00">shadow pass</text>
</g>
<!-- p0x7f98dc0010d0&#45;&gt;p0x7f98dc0012b0 -->
<g id="edge6" class="edge">
<title>p0x7f98dc0010d0&#45;&gt;p0x7f98dc0012b0</title>
<path fill="none" stroke="black" d="M286.74,-248.81C283.27,-240.62 279.05,-230.62 275.19,-221.48"/>
<polygon fill="black" stroke="black" points="278.31,-219.88 271.2,-212.03 271.86,-222.6 278.31,-219.88"/>
</g>
<!-- p0x7f98dc0013a0 -->
<g id="node6" class="node">
<title>p0x7f98dc0013a0</title>
<ellipse fill="none" stroke="black" cx="125" cy="-194" rx="65.79" ry="18"/>
<text text-anchor="middle" x="125" y="-190.3" font-family="Times,serif" font-size="14.00">swapchain pass</text>
</g>
<!-- p0x7f98dc0010d0&#45;&gt;p0x7f98dc0013a0 -->
<g id="edge7" class="edge">
<title>p0x7f98dc0010d0&#45;&gt;p0x7f98dc0013a0</title>
<path fill="none" stroke="black" d="M260.61,-251.97C234.34,-240.93 197.51,-225.46 168.86,-213.42"/>
<polygon fill="black" stroke="black" points="170.05,-210.13 159.48,-209.49 167.34,-216.59 170.05,-210.13"/>
</g>
<!-- p0x7f98dc0011c0 -->
<g id="node7" class="node">
<title>p0x7f98dc0011c0</title>
<ellipse fill="none" stroke="black" cx="389" cy="-194" rx="51.99" ry="18"/>
<text text-anchor="middle" x="389" y="-190.3" font-family="Times,serif" font-size="14.00">upload data</text>
</g>
<!-- p0x7f98dc0010d0&#45;&gt;p0x7f98dc0011c0 -->
<g id="edge5" class="edge">
<title>p0x7f98dc0010d0&#45;&gt;p0x7f98dc0011c0</title>
<path fill="none" stroke="black" d="M315.56,-249.89C328.74,-240.04 345.76,-227.32 360.1,-216.6"/>
<polygon fill="black" stroke="black" points="362.27,-219.35 368.18,-210.56 358.08,-213.74 362.27,-219.35"/>
</g>
<!-- p0x7f98dc000ef0 -->
<g id="node4" class="node">
<title>p0x7f98dc000ef0</title>
<ellipse fill="none" stroke="black" cx="134" cy="-267" rx="81.49" ry="18"/>
<text text-anchor="middle" x="134" y="-263.3" font-family="Times,serif" font-size="14.00">make entity batches</text>
</g>
<!-- p0x7f98dc000ef0&#45;&gt;p0x7f98dc0012b0 -->
<g id="edge3" class="edge">
<title>p0x7f98dc000ef0&#45;&gt;p0x7f98dc0012b0</title>
<path fill="none" stroke="black" d="M163.17,-250.07C182.26,-239.64 207.34,-225.95 227.71,-214.82"/>
<polygon fill="black" stroke="black" points="229.6,-217.78 236.7,-209.91 226.25,-211.63 229.6,-217.78"/>
</g>
<!-- p0x7f98dc000ef0&#45;&gt;p0x7f98dc0013a0 -->
<g id="edge4" class="edge">
<title>p0x7f98dc000ef0&#45;&gt;p0x7f98dc0013a0</title>
<path fill="none" stroke="black" d="M131.82,-248.81C130.8,-240.79 129.57,-231.05 128.43,-222.07"/>
<polygon fill="black" stroke="black" points="131.89,-221.51 127.16,-212.03 124.94,-222.39 131.89,-221.51"/>
</g>
<!-- p0x7f98dc001490 -->
<g id="node8" class="node">
<title>p0x7f98dc001490</title>
<polygon fill="aquamarine" stroke="black" points="264,-139 155.58,-121 264,-103 372.42,-121 264,-139"/>
<text text-anchor="middle" x="264" y="-117.3" font-family="Times,serif" font-size="14.00">submit commands</text>
</g>
<!-- p0x7f98dc0012b0&#45;&gt;p0x7f98dc001490 -->
<g id="edge9" class="edge">
<title>p0x7f98dc0012b0&#45;&gt;p0x7f98dc001490</title>
<path fill="none" stroke="black" d="M264,-175.81C264,-167.79 264,-158.05 264,-149.07"/>
<polygon fill="black" stroke="black" points="267.5,-149.03 264,-139.03 260.5,-149.03 267.5,-149.03"/>
</g>
<!-- p0x7f98dc0013a0&#45;&gt;p0x7f98dc001490 -->
<g id="edge10" class="edge">
<title>p0x7f98dc0013a0&#45;&gt;p0x7f98dc001490</title>
<path fill="none" stroke="black" d="M154.82,-177.77C176.69,-166.6 206.46,-151.39 229.38,-139.68"/>
<polygon fill="black" stroke="black" points="231.12,-142.73 238.43,-135.06 227.93,-136.49 231.12,-142.73"/>
</g>
<!-- p0x7f98dc0011c0&#45;&gt;p0x7f98dc001490 -->
<g id="edge8" class="edge">
<title>p0x7f98dc0011c0&#45;&gt;p0x7f98dc001490</title>
<path fill="none" stroke="black" d="M363.1,-178.29C343.66,-167.25 316.94,-152.07 296.14,-140.26"/>
<polygon fill="black" stroke="black" points="297.76,-137.15 287.34,-135.26 294.3,-143.24 297.76,-137.15"/>
</g>
<!-- p0x7f98dc001490&#45;&gt;p0x7f98dc000fe0 -->
<g id="edge11" class="edge">
<title>p0x7f98dc001490&#45;&gt;p0x7f98dc000fe0</title>
<path fill="none" stroke="black" stroke-dasharray="5,2" d="M238.18,-107.09C210.62,-93.31 166.58,-71.29 134.42,-55.21"/>
<polygon fill="black" stroke="black" points="135.78,-51.98 125.27,-50.64 132.65,-58.24 135.78,-51.98"/>
<text text-anchor="middle" x="192.5" y="-73.8" font-family="Times,serif" font-size="14.00">0</text>
</g>
<!-- p0x7f98dc001580 -->
<g id="node9" class="node">
<title>p0x7f98dc001580</title>
<ellipse fill="none" stroke="black" cx="287" cy="-34" rx="96.68" ry="18"/>
<text text-anchor="middle" x="287" y="-30.3" font-family="Times,serif" font-size="14.00">increment frame pointer</text>
</g>
<!-- p0x7f98dc001490&#45;&gt;p0x7f98dc001580 -->
<g id="edge12" class="edge">
<title>p0x7f98dc001490&#45;&gt;p0x7f98dc001580</title>
<path fill="none" stroke="black" stroke-dasharray="5,2" d="M268.43,-103.61C271.62,-91.85 275.98,-75.73 279.68,-62.07"/>
<polygon fill="black" stroke="black" points="283.11,-62.78 282.34,-52.21 276.35,-60.95 283.11,-62.78"/>
<text text-anchor="middle" x="279.5" y="-73.8" font-family="Times,serif" font-size="14.00">1</text>
</g>
</g>
</svg>
